<?xml version="1.0" standalone="no"?><!DOCTYPE svg PUBLIC "-//W3C//DTD SVG 1.1//EN" "http://www.w3.org/Graphics/SVG/1.1/DTD/svg11.dtd"><svg t="1715590645248" class="icon" viewBox="0 0 1087 1024" version="1.1" xmlns="http://www.w3.org/2000/svg" p-id="7580" xmlns:xlink="http://www.w3.org/1999/xlink" width="212.3046875" height="200"><path d="M541.094268 1016.135258C279.372536 1016.135258 1.203464 935.03868 1.203464 784.764041c0-45.657732 26.835134-111.373196 154.824577-165.286268a38.605856 38.605856 0 0 1 29.970474 71.120495C118.551753 718.97468 78.330722 754.170722 78.330722 784.764041c0 64.395876 176.043546 154.265072 462.763546 154.265072S1003.868371 849.181031 1003.868371 784.785155c0-31.057814-41.150021-66.68668-110.138062-95.284784a38.595299 38.595299 0 0 1 29.622103-71.278845C1053.66433 672.356289 1081.006186 738.694598 1081.006186 784.785155c-0.010557 150.264082-278.179629 231.36066-539.911918 231.360659z" fill="#707070" p-id="7581"></path><path d="M530.46367 858.217567C329.738557 796.355299 194.876701 622.972041 194.876701 426.88132V158.667216c0-11.369567 5.014433-22.126845 13.723711-29.463752a38.194144 38.194144 0 0 1 31.395629-8.529815c38.289155 6.524041 81.402722 1.889649 128.686186-13.069195a336.357608 336.357608 0 0 0 146.537567-94.989196 38.721979 38.721979 0 0 1 55.961072-1.266804C596.559175 36.948454 649.15266 83.461278 716.303835 107.678351c43.493608 15.771711 88.887423 20.057732 126.838763 12.678597a38.574186 38.574186 0 0 1 45.879423 37.835217v268.668041c0 190.727918-137.944412 368.017155-335.470846 431.177897-3.800412 1.224577-7.769732 1.847423-11.760165 1.847423a38.489732 38.489732 0 0 1-11.32734-1.667959zM272.003959 200.704v226.17732c0 158.297732 107.826144 299.10301 269.565361 353.860618 159.765113-56.077196 270.336-199.986144 270.336-353.860618V200.946804a334.436289 334.436289 0 0 1-121.82433-20.743917c-59.782598-21.56734-109.135175-56.267216-145.386887-87.96899a410.381196 410.381196 0 0 1-152.67101 88.887423c-42.07901 13.322557-82.521732 20.057732-120.019134 19.603793z" fill="#707070" p-id="7582"></path><path d="M380.041237 406.316866C382.923216 321.377649 452.73468 253.360825 538.391753 253.360825s155.468536 68.016825 158.350515 152.956041c-0.717856-0.358928-1.794639-0.358928-2.881979-0.358928h-52.181774c-4.317691-53.269113-48.940866-95.010309-103.286762-95.010309-54.345897 0-98.969072 41.741196-103.286763 95.010309h-52.181774a3.821526 3.821526 0 0 0-2.881979 0.358928z m0.358928 19.42433a4.560495 4.560495 0 0 0 2.164124 0.369484h63.340206a8.762062 8.762062 0 0 0 8.635381-8.645938v-2.871422c0-46.069443 37.423505-83.503505 83.492949-83.503506s83.492948 37.434062 83.492948 83.503506v2.871422a8.762062 8.762062 0 0 0 8.635382 8.645938h63.340206c0.717856 0 1.446268 0 2.164124-0.358927C689.18367 506.362722 621.156289 570.061856 538.391753 570.061856c-82.764536 0-150.791918-63.699134-157.991588-144.310103z m159.427299 37.79299a53.142433 53.142433 0 0 0 53.269113-53.258557 53.142433 53.142433 0 0 0-53.269113-53.269114 53.142433 53.142433 0 0 0-53.258557 53.269114 53.142433 53.142433 0 0 0 53.258557 53.258557z m0-20.152743A33.021361 33.021361 0 0 1 506.721649 410.275629a33.021361 33.021361 0 0 1 33.105815-33.116371 33.021361 33.021361 0 0 1 33.116371 33.116371A33.021361 33.021361 0 0 1 539.827464 443.381443z m0-23.034721a10.30334 10.30334 0 0 0 10.081649-10.071093 10.30334 10.30334 0 0 0-10.081649-10.08165 10.30334 10.30334 0 0 0-10.071093 10.08165c0 5.394474 4.676619 10.071093 10.071093 10.071093z" fill="#707070" p-id="7583"></path></svg>